<svg id="图层_1" data-name="图层 1" xmlns="http://www.w3.org/2000/svg" viewBox="0 0 447.75 69.35"><defs><style>.cls-1{fill:#fff;}.cls-2{fill:#e60012;}</style></defs><title>icon_mate_xs</title><polygon class="cls-1" points="21.02 13.7 6.45 13.7 6.45 0.87 0 0.87 0 32.67 6.45 32.67 6.45 19.75 21.02 19.75 21.02 32.67 27.47 32.67 27.47 0.87 21.02 0.87 21.02 13.7"/><path class="cls-1" d="M57.36,20.71c0,5.17-2.57,7.93-7.23,7.93s-7.27-2.84-7.27-8.15v-18H36.41V20.71c0,8.94,5,14.07,13.63,14.07s13.76-5.23,13.76-14.34V2.51H57.36Z" transform="translate(0 -1.64)"/><polygon class="cls-1" points="131.92 22.73 124.7 0.87 119.43 0.87 112.21 22.73 105.19 0.89 98.33 0.89 109.41 32.67 114.75 32.67 121.98 11.79 129.21 32.67 134.59 32.67 145.65 0.89 138.96 0.89 131.92 22.73"/><polygon class="cls-1" points="157.21 18.98 168.94 18.98 168.94 13.19 157.21 13.19 157.21 6.68 174.24 6.68 174.24 0.89 150.85 0.89 150.85 32.65 174.86 32.65 174.86 26.86 157.21 26.86 157.21 18.98"/><rect class="cls-1" x="182.55" y="0.87" width="6.36" height="31.75"/><path class="cls-1" d="M91.11,27.67,94,34.29h6.76l-14-31.78H81.09l-14,31.78h6.58l2.9-6.62ZM83.82,10.56l4.89,11.38H79Z" transform="translate(0 -1.64)"/><path class="cls-1" d="M333,18,323.18,2.55h4.73l7.35,12.24,7.66-12.24h4.56l-9.75,15.27,10.56,16.32h-4.82l-8.11-13.26-8.42,13.26h-4.56Z" transform="translate(0 -1.64)"/><path class="cls-1" d="M353.78,34.16a13.51,13.51,0,0,1-3.14-1.06l1-3a13.21,13.21,0,0,0,2.86,1,14.26,14.26,0,0,0,3.21.38,6.15,6.15,0,0,0,3.77-1,3.19,3.19,0,0,0,1.29-2.68,2.81,2.81,0,0,0-.58-1.8,5,5,0,0,0-1.67-1.29q-1.09-.56-3.23-1.38a20.37,20.37,0,0,1-3.41-1.69,6.5,6.5,0,0,1-2.09-2.1,5.67,5.67,0,0,1-.75-3,6.07,6.07,0,0,1,.91-3.34A5.79,5.79,0,0,1,354.59,11a10.46,10.46,0,0,1,4.21-.76,16.3,16.3,0,0,1,6.94,1.59l-.78,2.88a16.16,16.16,0,0,0-3-1.09,12.12,12.12,0,0,0-3-.39,5.05,5.05,0,0,0-3,.8,2.49,2.49,0,0,0-1.08,2.1,2.3,2.3,0,0,0,.56,1.56A5,5,0,0,0,357,18.86q1,.5,3,1.33a31.53,31.53,0,0,1,3.53,1.7A6.46,6.46,0,0,1,365.7,24a6,6,0,0,1,.86,3.35,6.93,6.93,0,0,1-1,3.81,6.8,6.8,0,0,1-3.05,2.53,11.87,11.87,0,0,1-4.87.91A17.69,17.69,0,0,1,353.78,34.16Z" transform="translate(0 -1.64)"/><path class="cls-1" d="M218.58,13.17q-.53-1.29-1.13-3t-1-3q.08,1.22.15,3.44t.06,4.23V34.13H213V2.58h5.21l8,19.78a57.43,57.43,0,0,1,2.48,7.1q.93-2.94,2.63-7l8.18-19.85h5.09V34.13h-3.91V14.78q0-2.68.29-7.67a69.86,69.86,0,0,1-2.42,6.69l-8.45,20.37h-3.09Z" transform="translate(0 -1.64)"/><path class="cls-1" d="M264.73,34.13a22,22,0,0,1-.34-3.25,10.46,10.46,0,0,1-3.29,2.61,9.49,9.49,0,0,1-4.49,1.07,7.69,7.69,0,0,1-3.51-.78,5.85,5.85,0,0,1-2.46-2.33,7.35,7.35,0,0,1-.9-3.77,6.8,6.8,0,0,1,2.36-5.41q2.36-2,7.82-2a32.73,32.73,0,0,1,4.35.31v-.59q0-3.61-1.41-5.08a5.24,5.24,0,0,0-4-1.46,13.18,13.18,0,0,0-3.5.5,18.23,18.23,0,0,0-3.23,1.2L251.51,12a17,17,0,0,1,3.42-1.19,18.31,18.31,0,0,1,4.55-.56,10.43,10.43,0,0,1,4.64.94,6.45,6.45,0,0,1,3,3.18,14.35,14.35,0,0,1,1.06,6.06v9.24q0,1.46.17,4.42Zm-3.42-3.67a8.76,8.76,0,0,0,3-2.34V23.06a34.64,34.64,0,0,0-3.89-.24q-3.76,0-5.23,1.26a4.26,4.26,0,0,0-1.46,3.4,3.87,3.87,0,0,0,1,3,4,4,0,0,0,2.81,1A8.18,8.18,0,0,0,261.32,30.46Z" transform="translate(0 -1.64)"/><path class="cls-1" d="M276.18,32.87q-1.61-1.7-1.61-5.64V13.87h-3l.53-2.72,2.59-.39.3-5.42,3.41-.57v6h6.73l-.53,3.12h-6.2v13a5.5,5.5,0,0,0,.84,3.4,3.14,3.14,0,0,0,2.63,1.07,10,10,0,0,0,3.24-.68l.67,2.81a11.54,11.54,0,0,1-2.23.81,10.88,10.88,0,0,1-2.73.33A6.08,6.08,0,0,1,276.18,32.87Z" transform="translate(0 -1.64)"/><path class="cls-1" d="M305.92,22.58H290.84q0,4.38,1.92,6.57a6.78,6.78,0,0,0,5.44,2.19,14.51,14.51,0,0,0,6.37-1.5l.9,2.88a16.3,16.3,0,0,1-3.61,1.37,18.29,18.29,0,0,1-4.43.48,11,11,0,0,1-5.75-1.42,8.9,8.9,0,0,1-3.57-4.09,15.46,15.46,0,0,1-1.21-6.42A16,16,0,0,1,288.17,16a9.61,9.61,0,0,1,3.52-4.25,9.39,9.39,0,0,1,5.21-1.46A8.26,8.26,0,0,1,302,11.8a8.86,8.86,0,0,1,3,4,14.39,14.39,0,0,1,1,5.33ZM302,19.75a8.2,8.2,0,0,0-1.59-4.85,4.59,4.59,0,0,0-3.69-1.62,4.92,4.92,0,0,0-3.8,1.65A8.8,8.8,0,0,0,291,19.75Z" transform="translate(0 -1.64)"/><path class="cls-2" d="M412.91,71a14.45,14.45,0,1,0-14.45-14.45A14.45,14.45,0,0,0,412.91,71" transform="translate(0 -1.64)"/><path class="cls-1" d="M408.62,50.08c-2.73-.11-3.47,3.77-3.63,4.43a.1.1,0,0,1,0,.06,6.74,6.74,0,0,1-1.31-.29l-.19.54a5.09,5.09,0,0,0,1.4.35,18.19,18.19,0,0,1-1,3,6.3,6.3,0,0,0-1.66-.22c-1.2,0-1.63.57-1.66.92-.08.93,1.1,1.37,1.91,1.37a3.49,3.49,0,0,0,2.42-.86A29.27,29.27,0,0,0,414,61.08a41.71,41.71,0,0,0,11.25-1.63l-.16-.57s-3.73,1.3-10.87,1.21a28,28,0,0,1-8.7-1.5s.14-.25.22-.41a25.63,25.63,0,0,0,1.08-3s3.38-.95,3.38-3.63a1.57,1.57,0,0,0-1.59-1.43m.13.77a.66.66,0,0,1,.67.8,3.36,3.36,0,0,1-2.49,2.77s.54-3.57,1.82-3.57m5.42,1.85c-.57,0-1,.23-1,.76s.45.67,1,.67,1-.22,1-.77-.58-.67-1-.67m7.55,1.94a2.57,2.57,0,0,0-2.55,2.23c0,.18,0,.19,0,.19a2,2,0,0,1-1.31.7c-.57,0-.67-.46-.67-.76s.28-1.62,1.05-1.62a.89.89,0,0,1,.67.35l.22-.73A1.81,1.81,0,0,0,418,54.7a2.56,2.56,0,0,0-2.68,2.23,1.09,1.09,0,0,1,0,.22,1.32,1.32,0,0,1-.92.51c-.34,0-.35-.26-.35-.38s.67-2.49.67-2.49l-1.79,0-.61,2.26a5.13,5.13,0,0,1-2.36.8c-.7,0-1-.39-1-.64v-.1s.3,0,.51,0,2.26-.16,2.26-1.43c0-.73-.74-1-1.66-1-1.7,0-2.9,1-2.9,2.29s1,1.62,2.23,1.62a6.33,6.33,0,0,0,2.84-.86s.08.86,1.21.86a3.39,3.39,0,0,0,2.07-.86,2,2,0,0,0,1.66.83,3.19,3.19,0,0,0,2.07-1,1.54,1.54,0,0,0,1.5.89,1.91,1.91,0,0,0,1.4-.57,1.12,1.12,0,0,0,1.05.57,2.73,2.73,0,0,0,1.69-.67l-.16-.57a1.41,1.41,0,0,1-.64.29.32.32,0,0,1-.32-.35,20,20,0,0,1,.67-2.49l-1.63,0-.06.26s-.24-.45-1.08-.45m-11.54.64a.4.4,0,0,1,.41.35c0,1.13-1.43,1-1.43,1s.21-1.36,1-1.31m11.86,0a.49.49,0,0,1,.51.48s-.19,2-1.15,2c-.44,0-.45-.5-.45-.64,0-.37.29-1.82,1.08-1.82M401.9,58.65h.22a4.54,4.54,0,0,1,1.31.29,2.87,2.87,0,0,1-1.31.57c-.45,0-.73-.28-.73-.45s.26-.39.51-.41" transform="translate(0 -1.64)"/><path class="cls-1" d="M244.09,59.67a4.39,4.39,0,0,1-1.44.26,3.14,3.14,0,0,1-2.7-1.36,4.18,4.18,0,0,1-.63-1.4,6.62,6.62,0,0,1-.2-1.62,6.38,6.38,0,0,1,.2-1.62,4.11,4.11,0,0,1,.64-1.4,3.37,3.37,0,0,1,1.11-1,3.3,3.3,0,0,1,1.63-.37,3.46,3.46,0,0,1,.68.07,3,3,0,0,1,.68.22l-.08.79a1.82,1.82,0,0,0-.67-.31,3.1,3.1,0,0,0-.71-.09,2.36,2.36,0,0,0-1.29.34,2.66,2.66,0,0,0-.85.87,3.82,3.82,0,0,0-.46,1.2,6.29,6.29,0,0,0-.14,1.3,5.81,5.81,0,0,0,.15,1.28,3.89,3.89,0,0,0,.47,1.18,2.67,2.67,0,0,0,.85.87,2.29,2.29,0,0,0,1.27.34,2.79,2.79,0,0,0,.71-.08,3.41,3.41,0,0,0,.69-.27Z" transform="translate(0 -1.64)"/><path class="cls-1" d="M253.45,55.55a9,9,0,0,1-.13,1.48,4.73,4.73,0,0,1-.46,1.41,3,3,0,0,1-.9,1.06,2.36,2.36,0,0,1-1.44.42,2.46,2.46,0,0,1-1.48-.41,2.87,2.87,0,0,1-.88-1.06,4.69,4.69,0,0,1-.43-1.41,10.24,10.24,0,0,1-.11-1.49,8.54,8.54,0,0,1,.13-1.48,4.87,4.87,0,0,1,.46-1.41,3,3,0,0,1,.89-1.06,2.3,2.3,0,0,1,1.42-.42,2.48,2.48,0,0,1,1.49.41,2.84,2.84,0,0,1,.89,1.05,4.63,4.63,0,0,1,.43,1.41A10.39,10.39,0,0,1,253.45,55.55Zm-.75,0c0-.37,0-.76-.06-1.2a4.36,4.36,0,0,0-.29-1.21,2.4,2.4,0,0,0-.66-.93,1.73,1.73,0,0,0-1.16-.37,1.66,1.66,0,0,0-1.14.37,2.43,2.43,0,0,0-.65.94,4.46,4.46,0,0,0-.3,1.21,11,11,0,0,0-.07,1.18c0,.25,0,.51,0,.78a6.4,6.4,0,0,0,.11.83,4.83,4.83,0,0,0,.23.79,2.43,2.43,0,0,0,.39.67,1.82,1.82,0,0,0,.58.46,1.83,1.83,0,0,0,.83.17,1.69,1.69,0,0,0,1.15-.37,2.45,2.45,0,0,0,.66-.94,4.46,4.46,0,0,0,.3-1.21A11.23,11.23,0,0,0,252.7,55.55Z" transform="translate(0 -1.64)"/><path class="cls-1" d="M257.14,56.19V55.5h2.42v.69Z" transform="translate(0 -1.64)"/><path class="cls-1" d="M263.67,59.79V51.3h3.52V52h-2.83v3.09h2.68v.64h-2.68v3.44h3v.66Z" transform="translate(0 -1.64)"/><path class="cls-1" d="M275.67,59.79l-3.47-7.6v7.6h-.7V51.3h1L276,58.92V51.3h.7v8.49Z" transform="translate(0 -1.64)"/><path class="cls-1" d="M286.37,59.45a3.55,3.55,0,0,1-.92.37,4.05,4.05,0,0,1-1,.11,3.39,3.39,0,0,1-1.65-.38,3.23,3.23,0,0,1-1.12-1,4.23,4.23,0,0,1-.64-1.4,6.32,6.32,0,0,1-.21-1.61,5.88,5.88,0,0,1,.22-1.6,4.5,4.5,0,0,1,.67-1.4,3.51,3.51,0,0,1,1.12-1,3.1,3.1,0,0,1,1.56-.38,4,4,0,0,1,.9.11,3.42,3.42,0,0,1,.86.32l-.08.8a2.7,2.7,0,0,0-.85-.4,3.35,3.35,0,0,0-.91-.15,2.28,2.28,0,0,0-1.26.34,2.67,2.67,0,0,0-.85.87,4.05,4.05,0,0,0-.48,1.19,5.56,5.56,0,0,0,0,2.63,3.73,3.73,0,0,0,.5,1.18,2.72,2.72,0,0,0,.89.85,2.58,2.58,0,0,0,1.34.32,2.68,2.68,0,0,0,.6-.06,2,2,0,0,0,.55-.22v-3h-1.51v-.66h2.21Z" transform="translate(0 -1.64)"/><path class="cls-1" d="M290.71,59.79V51.3h.7v8.49Z" transform="translate(0 -1.64)"/><path class="cls-1" d="M300.25,59.79l-3.47-7.6v7.6h-.7V51.3h1l3.48,7.62V51.3h.7v8.49Z" transform="translate(0 -1.64)"/><path class="cls-1" d="M305.9,59.79V51.3h3.52V52H306.6v3.09h2.68v.64H306.6v3.44h3v.66Z" transform="translate(0 -1.64)"/><path class="cls-1" d="M313.72,59.79V51.3h3.52V52h-2.82v3.09h2.68v.64h-2.68v3.44h3v.66Z" transform="translate(0 -1.64)"/><path class="cls-1" d="M325.43,59.79l-1.06-2.93-.16-.39a1.44,1.44,0,0,0-.21-.34.85.85,0,0,0-.3-.23,1,1,0,0,0-.43-.08h-1v4h-.7V51.3h1.93a2.22,2.22,0,0,1,1.61.59,2.13,2.13,0,0,1,.6,1.6,2.16,2.16,0,0,1-.42,1.37,1.89,1.89,0,0,1-1.23.68.93.93,0,0,1,.53.24,1.6,1.6,0,0,1,.29.51l1.32,3.5Zm-.48-6.29a1.42,1.42,0,0,0-.45-1.17,1.88,1.88,0,0,0-1.22-.37h-1v3.19h1.07a1.6,1.6,0,0,0,1.23-.43A1.74,1.74,0,0,0,324.95,53.5Z" transform="translate(0 -1.64)"/><path class="cls-1" d="M330.09,59.79V51.3h3.52V52h-2.82v3.09h2.68v.64h-2.68v3.44h3v.66Z" transform="translate(0 -1.64)"/><path class="cls-1" d="M343.05,55.55a6.13,6.13,0,0,1-.23,1.74,3.49,3.49,0,0,1-.71,1.34,3.21,3.21,0,0,1-1.19.86,4.36,4.36,0,0,1-1.71.31h-1.3V51.3h1A4.12,4.12,0,0,1,342,52.39,4.45,4.45,0,0,1,343.05,55.55Zm-.75,0a6.14,6.14,0,0,0-.16-1.43,3,3,0,0,0-.53-1.14,2.49,2.49,0,0,0-1-.75,3.39,3.39,0,0,0-1.43-.27h-.63v7.16h.81a2.94,2.94,0,0,0,1.37-.29,2.4,2.4,0,0,0,.89-.78,3.25,3.25,0,0,0,.49-1.14A6.22,6.22,0,0,0,342.3,55.55Z" transform="translate(0 -1.64)"/><path class="cls-1" d="M358.77,59.79h-.83l-1.72-7.71-1.7,7.71h-.83l-2-8.49h.75L354.12,59l1.72-7.71h.84L358.4,59,360,51.3h.7Z" transform="translate(0 -1.64)"/><path class="cls-1" d="M364.47,59.79V51.3h.7v8.49Z" transform="translate(0 -1.64)"/><path class="cls-1" d="M371.52,52v7.83h-.7V52H368.9V51.3h4.54V52Z" transform="translate(0 -1.64)"/><path class="cls-1" d="M381.18,59.79v-4.1h-3.31v4.1h-.7V51.3h.7V55h3.31V51.3h.7v8.49Z" transform="translate(0 -1.64)"/><path class="cls-1" d="M380.29,35.65v-34h1v34Z" transform="translate(0 -1.64)"/><path class="cls-1" d="M395,31.4l1.19-3.16a13.57,13.57,0,0,0,3.55,2A11.67,11.67,0,0,0,404,31a7.45,7.45,0,0,0,3.65-.84,5.47,5.47,0,0,0,2.29-2.36,7.81,7.81,0,0,0,.77-3.57,5.69,5.69,0,0,0-1.89-4.63,8.08,8.08,0,0,0-5.32-1.58,18.08,18.08,0,0,0-3.77.38,20.69,20.69,0,0,0-3.17.92l1.21-15.85h15.28l-.42,3.32H400.8l-.71,8.78a14.65,14.65,0,0,1,4.39-.63,12.78,12.78,0,0,1,5.19,1,8.34,8.34,0,0,1,3.69,3.08,9,9,0,0,1,1.36,5,10.49,10.49,0,0,1-1.31,5.31A8.81,8.81,0,0,1,409.71,33a12.12,12.12,0,0,1-5.6,1.23A14.81,14.81,0,0,1,395,31.4Z" transform="translate(0 -1.64)"/><path class="cls-1" d="M429.08,32.31a12.38,12.38,0,0,1-5-5.34,17.87,17.87,0,0,1-1.71-8,17.35,17.35,0,0,1,2-8.6,13.26,13.26,0,0,1,5.48-5.39,16.66,16.66,0,0,1,7.87-1.83,19.86,19.86,0,0,1,5,.61A22,22,0,0,1,447,5.31l-1.23,3.14a17.94,17.94,0,0,0-8-2,11.83,11.83,0,0,0-5.91,1.44,9.94,9.94,0,0,0-4,4.26,14.78,14.78,0,0,0-1.44,6.79,16,16,0,0,0,1.12,6.16,9.31,9.31,0,0,0,3.5,4.3,10.63,10.63,0,0,0,6,1.59,19,19,0,0,0,3.45-.32,20.3,20.3,0,0,0,3.34-.91V22.77h-7.57V19.51h11.39V31.69A25.36,25.36,0,0,1,436.9,34.2,15.39,15.39,0,0,1,429.08,32.31Z" transform="translate(0 -1.64)"/></svg>